
        <svg xmlns="http://www.w3.org/2000/svg" xmlns:xlink="http://www.w3.org/1999/xlink" version="1.1" width="3162.3245235638333" 
        height="1446.3046249306276" viewBox="0 0 3162.3245235638333 1446.3046249306276">
			<rect fill="#eeeeee" width="3162.3245235638333" height="1446.3046249306276"/>
			<g transform="scale(8.116226178191663) translate(10, 10)">
				<defs id="SvgjsDefs1734"></defs><g id="SvgjsG1735" featureKey="symbolFeature-0" transform="matrix(8.697053510492262,0,0,8.697053510492262,0.000008294156561367285,44)" fill="#222831"><defs xmlns="http://www.w3.org/2000/svg"></defs><g xmlns="http://www.w3.org/2000/svg"><path class="fil0" d="M4.0469 3.6506c0,0 -0.008,-1.6637 -0.0646,-1.3246 -0.0565,0.3392 -0.323,1.583 -0.323,1.583 -2.6667,-1.9753 -0.439,-2.5912 -0.1616,-3.909 0,0 2.2291,1.3569 0.5492,3.6506zm-1.577 1.8638c0.1131,0.9319 -0.3275,0.7466 -0.8413,1.1319 0,0 -0.3341,-1.002 0.6566,-1.163 0,0 -0.3777,0.4656 -0.2819,0.3862 0.0959,-0.0795 0.4666,-0.3551 0.4666,-0.3551zm-0.2697 -2.5481c-0.9525,0.4201 -0.8977,-0.1071 -1.4722,-0.5282 0,0 0.9558,-0.6773 1.4457,0.3221 0,0 -0.6157,-0.2508 -0.5006,-0.1747 0.1152,0.0762 0.5271,0.3808 0.5271,0.3808zm2.7403 2.3612c0.0252,1.401 0.6382,1.0363 1.4776,1.4999 0,0 0.2871,-1.5506 -1.2109,-1.584 0,0 0.6546,0.6104 0.4965,0.5127 -0.1582,-0.0976 -0.7632,-0.4286 -0.7632,-0.4286zm0.1011 -3.1874c-0.2999,-1.3687 0.3808,-1.1559 1.09,-1.8013 0,0 0.6385,1.4419 -0.811,1.8214 0,0 0.4954,-0.7455 0.3642,-0.6138 -0.1313,0.1317 -0.6432,0.5937 -0.6432,0.5937zm-1.2743 2.0508c-1.8511,1.2038 -0.6395,2.2657 -0.3994,3.8919 0,0 2.3076,-1.2184 0.7706,-3.6103 0,0 -0.1094,1.6602 -0.1452,1.3182 -0.0358,-0.3421 -0.226,-1.5998 -0.226,-1.5998zm-0.4762 -0.022c-1.269,1.8442 -1.764,0.8177 -3.2911,0.6952 0,0 0.9848,-2.3189 3.0101,-1.0424 0,0 -1.4105,0.2359 -1.1136,0.2452 0.2968,0.0094 1.3946,0.102 1.3946,0.102zm1.0375 0.0941c1.6045,2.0982 3.1897,-1.096 4.1076,-1.8599 -1.9655,-0.158 -2.6897,-0.7459 -4.0469,1.398 0,0 1.4963,-0.7275 1.2169,-0.5269 -0.2793,0.2004 -1.2776,0.9888 -1.2776,0.9888z" style="fill: #222831;"></path></g></g><g id="SvgjsG1736" featureKey="nameFeature-0" transform="matrix(4.686649683895143,0,0,4.686649683895143,99.86635369947626,-39.11251088332699)" fill="#222831"><path d="M5.16 30.96 c0.04 0.08 0.12 0.12 0.12 0.24 c0.4 -0.04 0.6 0.12 0.84 0.24 c0 0.04 -0.08 0.04 -0.12 0.04 c0.36 0.36 0.84 0.88 0.6 1.44 c0.04 0.12 0.2 -0.16 0.32 0 c0 0.16 -0.12 0.2 -0.08 0.4 c-0.08 0.04 -0.12 -0.04 -0.28 0.04 c0.16 0.08 0.08 0.44 0.2 0.28 c0.16 0.16 -0.16 0.32 -0.2 0.44 c0.12 0 0.12 -0.08 0.24 -0.04 c-0.32 0.32 -0.2 0.8 -0.52 1.2 c0 0.04 0.12 0.04 0.2 0.04 c-0.44 1.08 -0.2 2.12 0.2 2.88 c-0.16 0.24 -0.36 0.04 -0.56 0.08 c-1.84 -1.4 -0.44 -3.96 -0.76 -6.2 c-0.64 0.4 -0.88 1.16 -1.48 1.56 c-0.44 0.88 -0.96 1.76 -1.6 2.48 c-0.76 1.24 -1.24 2.96 -2.92 3.12 c-1.2 -0.52 -0.88 -2.36 -0.36 -3.4 c0.24 -1.24 0.72 -2.28 1.12 -3.36 c0.52 0.04 1.24 0.04 1.6 0.56 c-0.2 0.6 -0.52 1.04 -0.68 1.64 c0.48 -0.32 0.64 -1 1.12 -1.32 c0.76 -1.04 1.32 -2.68 3 -2.36 z M4.28 31.4 l0.12 0 c0 -0.12 -0.04 -0.12 -0.12 -0.12 l0 0.12 z M4.84 31.4 c0.04 0 -0.04 -0.04 0 0 l0 0 z M4.56 31.560000000000002 c-0.28 0.2 -0.32 0.64 -0.68 0.72 c0 -0.04 -0.04 -0.04 -0.04 -0.08 c0 -0.12 0.16 -0.12 0.28 -0.16 c0 -0.12 0.16 -0.32 0.04 -0.4 c-0.04 0.12 -0.08 -0.08 -0.2 0 c-0.16 0.36 -0.52 0.44 -0.88 0.52 c-0.04 0.16 0.12 0.08 0.12 0.2 c-0.08 0 -0.16 0.08 -0.2 0.16 c-0.24 -0.04 -0.28 0.2 -0.36 0.32 c0.2 -0.08 0.48 -0.08 0.36 0.12 c-0.12 -0.12 -0.24 -0.04 -0.48 -0.04 c0 0.12 0.04 0.32 -0.12 0.24 c-0.04 0.24 0.2 0.16 0.24 0.32 c-0.12 0.04 -0.12 -0.08 -0.24 -0.04 c-0.04 0.12 -0.12 0.2 -0.16 0.28 c0.28 0.12 0.12 -0.2 0.36 -0.12 c-0.08 0.12 -0.08 0.28 -0.2 0.32 c0 -0.08 -0.16 -0.04 -0.2 -0.08 c-0.04 0.12 0.08 0.32 0 0.32 c-0.08 -0.04 -0.2 -0.16 -0.24 0 c0.28 0.08 0.12 0.2 0.04 0.4 c0.52 -0.04 0.28 -0.76 0.92 -0.68 c0.04 -0.12 0.12 -0.24 0.28 -0.24 c-0.08 -0.28 0.28 -0.4 0.48 -0.52 c0.12 -0.76 0.92 -1.08 1.08 -1.64 c-0.16 -0.04 -0.12 0.08 -0.2 0.08 l0 -0.12 c-0.16 0.08 -0.2 -0.08 -0.24 0.08 c0.04 0.04 0.12 0.08 0.24 0.04 z M4.2 31.52 c0.04 0.04 0 0 0 0 l0 0 z M4.08 32.480000000000004 c0.04 0.04 -0.04 0 0 0 l0 0 z M2.16 33.56 c0.2 0.04 0 -0.16 0 0 l0 0 z M1.92 34.76 c0.24 -0.04 0.04 -0.2 -0.04 -0.24 c-0.04 0.08 0.08 0.08 0.04 0.24 z M1.68 34.88 c0.08 0.16 0.12 -0.16 0 0 l0 0 z M5.72 35.24 c0.12 0.08 0.12 -0.24 0.04 -0.2 c0 0.08 -0.08 0.08 -0.04 0.2 z M5.72 35.519999999999996 l0 0.08 c0.12 0.08 0.12 -0.16 0.04 -0.12 c0 0 0 0.04 -0.04 0.04 z M5.56 35.96 c0.16 0 0.2 -0.12 0.24 -0.24 c-0.12 0 -0.28 0.04 -0.24 0.24 z M5.56 36.24 c0.12 0 0.2 -0.2 0.04 -0.2 c0 0.08 -0.04 0.12 -0.04 0.2 z M3 32.519999999999996 c-0.08 0.36 0.52 0.16 0.44 -0.16 c-0.12 0 -0.2 0.08 -0.2 0.24 c-0.12 0 -0.08 -0.12 -0.24 -0.08 z M3.88 32.36 c-0.16 0.08 -0.2 0.24 -0.32 0.32 c0.04 -0.16 0.12 -0.32 0.32 -0.32 z M3.48 32.76 c0.04 0.2 -0.2 0.32 -0.28 0.24 c0.12 -0.04 0.12 -0.24 0.28 -0.24 z M2.92 33.16 c-0.04 0.08 -0.08 0.16 -0.24 0.16 c0 -0.2 0.08 -0.24 0.24 -0.16 z M3 33.36 l0.12 0 l0 0.08 l-0.12 0 l0 -0.08 z M2.88 33.44 c0.2 0 0 0.36 -0.16 0.36 c-0.04 -0.2 0.2 -0.16 0.16 -0.36 z M6.76 33.480000000000004 c0.04 -0.16 0.04 0.2 0 0 l0 0 z M17.64 31.32 c-0.12 0.68 0 1.12 -0.64 1.48 c-0.48 1.2 -1.64 1.76 -2.52 2.56 c-0.76 0.16 -1.68 0.68 -2.4 0.16 c-0.44 0.6 -0.48 1.32 -0.68 2.2 c1.64 1.16 4.04 -0.36 5.72 -0.88 c0.92 -0.52 1.92 -1.04 2.96 -1.48 c0.12 -0.16 0.36 -0.2 0.48 -0.32 c0.12 0.36 -0.72 0.56 -1 0.84 c0 0.08 0.08 0.04 0.16 0.04 c-1.12 1 -2.36 1.6 -3.84 2.12 c0.28 0 0.88 0 1.24 -0.2 c-0.04 0.2 -0.2 0.24 -0.36 0.32 c0 0.08 0.24 -0.04 0.16 0.12 c-0.48 0.16 -0.92 0.64 -1.16 0.48 c-0.2 0.08 -0.04 0.16 -0.12 0.28 c-1.08 0.48 -1.8 0.8 -3.2 0.8 c-1.92 -0.4 -2.16 -2.28 -1.92 -4 c0.72 -2.2 2.28 -4.64 4.48 -5.72 c0.4 -0.2 0.88 -0.12 1.28 -0.12 c0.32 0.04 0.4 0.28 0.68 0.32 c0.08 0.48 0.4 0.72 0.68 1 z M14.52 32.04 c0.16 0.04 0.28 -0.28 0.4 -0.12 c-0.68 0.52 -1.28 1.08 -1.8 1.76 c1.32 -0.68 2.52 -1.48 3.28 -2.68 c-0.68 0.28 -1.48 0.48 -1.88 1.04 z M14.28 32.2 c0.04 0.04 0 -0.04 0 0 l0 0 z M13.959999999999999 38.4 c0.12 0.04 0.28 -0.08 0.24 0.24 c0.2 -0.12 0.32 -0.2 0.52 0 c0.08 -0.08 -0.08 -0.24 0.08 -0.24 c0.28 0 0.76 -0.2 1 -0.36 c-0.6 0.32 -1.36 0.12 -1.84 0.36 z M20.72 34.96 l0 0 c0.08 0 0 -0.04 0 0 z M20.72 34.96 c0 0.08 -0.08 0.04 0 0 l0 0 z M17 38.08 c0.08 -0.16 0.08 0.2 0 0 l0 0 z M26.639999999999997 31.240000000000002 l0 -0.12 c-0.08 0 -0.08 0.12 0 0.12 l0 0.16 l-0.12 0 c-0.12 0.64 -0.68 1.52 -1.12 1.84 c0.12 0.52 -0.68 0.92 -0.44 1.44 c-0.24 0.12 -0.4 0.72 -0.32 1.08 c-0.36 0.08 -0.24 0.64 -0.44 0.88 c1.36 -1.16 2.48 -3.16 4.72 -3.4 c0.04 0.12 0.12 0.28 0.36 0.24 c0.16 0.16 0.16 0.2 0.24 0.36 c0.16 0 0.28 0 0.36 0.04 c0.72 1.56 0 4.4 1.4 5.52 c0.08 0 0 -0.2 0.16 -0.16 c-0.04 0.12 0.08 0.12 0.12 0.24 c0.88 -0.04 1.68 -0.16 2.24 -0.8 c2.72 -1.68 5.16 -3.96 7.88 -5.8 c0.04 1 -1.12 1.2 -1.4 2.04 c-0.08 0 -0.12 -0.08 -0.08 -0.16 c-0.16 0.2 -0.48 0.24 -0.48 0.56 c-0.16 0.04 -0.44 0.08 -0.44 0.36 c-0.08 0 -0.08 -0.08 -0.16 -0.12 c-0.08 0.4 -0.48 0.2 -0.52 0.68 c0.24 -0.08 0.2 -0.2 0.48 -0.24 c-0.04 0.52 -0.6 0.32 -0.72 0.76 c0.04 0.08 0.08 0 0.16 0 c-0.04 0.32 -0.4 0.48 -0.6 0.48 c0 0.2 0.2 0.24 0.08 0.4 c-0.16 0.04 -0.16 -0.12 -0.2 -0.2 c-0.2 0.68 -1 0.76 -1.16 1.48 c-0.08 0 -0.12 0 -0.16 -0.04 c-0.64 0.92 -1.92 1.84 -3.16 2.2 c-3.04 0.08 -4.32 -2.72 -4.8 -5.76 c-2.28 1.68 -3.6 4.28 -5.48 6.36 l0 0.28 c-0.32 0.32 -0.48 0 -0.84 -0.04 c-0.36 -0.56 -0.76 -1.4 -0.88 -2.04 c0.44 -1.52 1 -3.28 1.4 -4.92 c-0.04 -0.08 -0.08 0 -0.16 0 c0 -0.24 -0.2 -0.56 0.08 -0.76 c0.08 0 0.12 0.04 0.12 0.08 c0.68 -1 0.84 -2.6 1 -3.88 c0.08 0 0.04 0.08 0.12 0.08 c0.16 -0.76 0.56 -1.6 0.44 -2.28 c0.16 0.12 0.32 -0.4 0.12 -0.48 c0 -0.08 0.12 -0.04 0.16 0 c0 -0.16 0 -0.28 0.08 -0.36 c0 -0.08 -0.16 -0.04 -0.08 -0.2 c0.4 -0.2 0.08 -0.84 0.44 -1.08 c-0.04 -0.08 -0.08 -0.04 -0.16 -0.04 c0.16 -0.04 0.12 -0.24 0.24 -0.32 c0 -0.16 -0.12 0.04 -0.16 -0.08 c0.16 -0.12 0.24 -0.28 0.32 -0.52 c0 -0.12 -0.16 0 -0.12 0.08 c0.08 -0.36 0.16 -0.8 0.4 -1.16 c-0.04 -0.16 -0.12 0.2 -0.16 0 s0.08 -0.24 0.24 -0.28 c0.08 -0.96 0.48 -1.52 0.48 -2.44 c0.08 0 0.08 0.08 0.16 0.04 c0.04 -0.56 0.32 -1.12 0.32 -1.72 c0.08 0 0.04 0.12 0.12 0.16 c0.04 -0.12 0.08 -0.28 0.12 -0.4 c-0.04 -0.12 -0.12 0.12 -0.12 0.16 c-0.08 -0.28 0.28 -0.56 0.36 -0.88 c0 -0.16 -0.16 0.12 -0.12 -0.04 c-0.04 -0.16 0.04 -0.16 0.12 -0.12 c0 -0.4 0.28 -0.6 0.2 -1.08 c0.16 0 0.16 -0.16 0.24 -0.24 c0 -0.04 -0.08 -0.08 -0.08 0 c0.2 -0.64 0.36 -1.04 0.64 -1.88 c-0.04 -0.16 -0.08 0.16 -0.12 0.2 c-0.16 -0.44 0.56 -0.64 0.28 -1.12 l0.16 0 c-0.04 -0.28 -0.08 -0.64 0.24 -0.76 c-0.08 -0.16 -0.04 -0.16 0 -0.32 c0.08 0.28 0.16 -0.24 0.24 -0.4 c0.12 -0.16 0.16 -0.32 0.08 -0.52 c1.04 -1.48 1.12 -4.28 3.56 -4.04 c0.24 0.44 0.8 0.56 1.2 0.88 c0.72 1.2 0.52 2.56 0.28 4 c-0.16 -0.04 -0.12 0.08 -0.2 0.12 c0 0.08 0.04 0.16 0.16 0.12 c-0.16 0.2 -0.08 0.56 -0.28 0.64 c0.12 0.88 -0.52 1.84 -0.64 2.8 c-0.08 0.08 -0.12 0 -0.24 0 l0 0.24 c0.04 -0.04 0.04 -0.08 0.04 -0.16 c0.2 0.48 -0.36 1 -0.36 1.6 c-0.12 0.08 -0.12 -0.04 -0.32 0 c0.04 0.08 0.16 0.08 0.2 0.12 c-0.28 1.08 -0.84 1.96 -1 2.92 c-0.08 -0.04 -0.16 -0.12 -0.24 -0.04 c-0.12 0.08 0.2 0.16 0.16 0.36 c-0.16 0.32 -0.6 0.6 -0.4 1 l-0.2 0 c0.12 0.12 0 0.24 -0.12 0.24 c0.04 0.16 0 0.2 0 0.36 c-0.16 0.04 -0.16 -0.04 -0.24 -0.04 c0 0.12 0.04 0.2 0.16 0.2 c0 0.32 -0.44 0.32 -0.28 0.68 c-0.4 0.04 -0.2 0.72 -0.6 0.76 c0.24 0.44 -0.6 0.92 -0.36 1.36 c-0.08 0.16 -0.4 0.12 -0.32 0.48 c-0.16 0.04 -0.12 -0.12 -0.2 -0.12 c0.12 0.32 -0.12 0.48 0.04 0.72 c-0.84 0.76 -0.72 1.96 -1.64 2.56 c0 0.08 0.16 0.04 0.16 0.08 c-0.04 0.16 -0.12 0.32 -0.24 0.16 c0.16 0.4 -0.24 0.56 -0.32 0.84 l-0.08 0 z M31.599999999999998 9.399999999999999 c0.04 0.04 -0.04 0 0 0 l0 0 z M27.799999999999997 26.6 c0.04 0.08 0.08 0 0 0 c0.6 -1.2 1.36 -2.72 1.88 -4.32 c0.08 0 0.16 0.2 0.16 0 c0.04 -0.16 -0.16 -0.04 -0.12 -0.2 c1 -2.08 1.56 -3.76 2.32 -6.04 c-0.2 -0.04 -0.08 0.2 -0.2 0.24 c0.36 -2.04 1.48 -4.4 1.12 -6.92 c-0.76 0.04 -0.84 0.96 -1.28 1.16 c-0.76 1.68 -1.48 3.48 -2.16 5.12 c0 0.16 0.08 0.24 0.08 0.4 c-0.52 0.64 -0.64 2 -1.08 2.68 c-0.64 3.52 -2.12 7.16 -2.64 10.76 c0.76 -1.4 1.36 -2.92 2.2 -4.24 c0.96 -2.36 2.16 -5.24 3.28 -7.72 c-1 3.52 -2.76 6.48 -3.88 9.72 c-0.56 0.44 -0.84 1.56 -1.24 2.28 c0.44 -0.2 0.64 -0.84 0.72 -1.28 c0.32 0.04 0.4 -0.6 0.4 -0.92 c0.12 0 0.12 0.08 0.2 0.04 c0.12 -0.24 0.08 -0.56 0.24 -0.76 z M31.159999999999997 9.84 c-0.08 -0.12 0.08 -0.24 -0.08 -0.28 c-0.08 0.08 -0.08 0.32 0.08 0.28 z M30.88 10.04 c-0.04 0.28 0.04 -0.2 0 0 l0 0 z M30.4 10.280000000000001 l0.16 0 c0 -0.08 -0.08 -0.12 -0.16 -0.08 l0 0.08 z M31.04 10.36 c0 0.04 -0.04 0 0 0 l0 0 z M30.32 10.600000000000001 c-0.04 0.32 0 -0.16 0 0 l0 0 z M29.88 11.2 c-0.16 0.16 0.16 0.12 0 0 l0 0 z M33.28 11.48 c0.04 0.04 -0.04 0 0 0 l0 0 z M29.72 11.64 l0 0.08 c0.12 0.08 0.16 -0.16 0.04 -0.16 c0 0.04 0 0.08 -0.04 0.08 z M33.32 11.8 c0.08 -0.04 0.04 -0.24 -0.08 -0.24 c0 0.12 0 0.24 0.08 0.24 z M29.68 12.04 l0 -0.16 c-0.2 -0.04 -0.16 0.2 0 0.16 z M30.479999999999997 12.120000000000001 c-0.12 0.16 0.16 -0.12 0 0 l0 0 z M29.479999999999997 12.280000000000001 c0.16 0.04 0.2 -0.16 0.04 -0.16 c0 0.04 -0.04 0.08 -0.04 0.16 z M33.239999999999995 12.16 c0.04 0.04 -0.04 -0.04 0 0 l0 0 z M29.839999999999996 12.52 c0 -0.08 0.12 -0.08 0.08 -0.24 c-0.16 -0.04 -0.2 0.2 -0.08 0.24 z M33.199999999999996 12.36 c0.04 0.16 0.04 -0.2 0 0 l0 0 z M29.36 12.64 c0 0.04 0 0.08 0.04 0.12 c0.12 0 0.12 -0.08 0.24 0 c0.04 -0.2 -0.24 -0.16 -0.28 -0.12 z M33.04 12.760000000000002 l0.24 0 c0 -0.12 -0.12 -0.12 -0.24 -0.12 l0 0.12 z M29.88 13.079999999999998 c0.04 0.16 0.04 -0.2 0 0 l0 0 z M28.919999999999998 13.64 c0.24 0.04 0.16 -0.24 0.28 -0.32 c0 0.04 0 0.16 0.04 0.16 c0.08 -0.04 0.12 -0.36 -0.08 -0.32 c-0.12 0.12 -0.16 0.32 -0.24 0.48 z M29.68 13.600000000000001 c0.12 0.2 0.08 -0.16 0 0 l0 0 z M28.88 14.120000000000001 c0 -0.08 0.16 -0.32 0.04 -0.4 c-0.08 0.08 -0.2 0.32 -0.04 0.4 z M29.279999999999998 14.04 c0.04 0 0 -0.04 0 0 l0 0 z M29.119999999999997 14.16 l0.12 0 c0 -0.08 -0.04 -0.12 -0.12 -0.08 l0 0.08 z M29 14.399999999999999 c0 -0.12 0 -0.24 -0.12 -0.24 c0 0.12 0.04 0.2 0.12 0.24 z M28.72 14.559999999999999 c-0.16 0.08 -0.32 0.32 -0.24 0.48 c0.16 -0.08 0.2 -0.28 0.24 -0.48 c0.08 -0.04 0.12 -0.08 0.16 -0.16 c-0.2 0.08 -0.04 -0.2 -0.16 -0.2 c-0.08 0.12 -0.04 0.24 0 0.36 z M32.839999999999996 14.52 c0.2 0 0.16 -0.16 0.04 -0.2 c0 0.08 0 0.16 -0.04 0.2 z M28.959999999999997 14.8 c0 -0.12 0.04 -0.16 0.16 -0.16 l0 -0.08 c-0.08 0 -0.08 -0.04 -0.12 -0.04 c-0.04 0.04 -0.24 0.2 -0.04 0.28 z M29.279999999999998 14.64 l0.12 0 l0 -0.08 l-0.12 0 l0 0.08 z M32.28 14.879999999999999 c-0.08 0.28 0.2 0.04 0 0 l0 0 z M28.4 15.16 c-0.08 0.28 0.2 0.04 0 0 l0 0 z M28.759999999999998 15.280000000000001 c0.16 0.16 0.08 -0.16 0 0 l0 0 z M32.16 15.32 l0.12 0 l0 -0.08 l-0.12 0 l0 0.08 z M29.279999999999998 15.36 c0.08 0.2 0.08 -0.2 0 0 l0 0 z M28.519999999999996 15.52 c-0.08 0 -0.08 -0.08 -0.12 -0.12 c-0.04 0.12 0.12 0.24 0.12 0.12 z M28.279999999999998 15.96 c0.04 -0.12 0.2 -0.4 0 -0.44 c-0.04 0.04 -0.08 0.36 0 0.44 z M28.639999999999997 15.719999999999999 c0.12 0.04 0.12 -0.24 0 -0.16 l0 0.16 z M32 15.96 c0.12 0.04 0.12 -0.24 0 -0.16 l0 0.16 z M28.759999999999998 16.12 c0.12 0.08 0.12 -0.2 0.04 -0.16 c0 0.04 -0.04 0.08 -0.04 0.16 z M28.159999999999997 16.08 l0 0.12 c0.12 0.04 0.12 -0.16 0.04 -0.16 c0 0.04 0 0.04 -0.04 0.04 z M29.119999999999997 16.08 c0 0.04 -0.04 0 0 0 l0 0 z M28 16.56 c0.12 -0.04 0.24 -0.08 0.28 -0.2 c-0.08 0 -0.04 -0.12 -0.2 -0.08 c0.04 0.16 -0.12 0.12 -0.08 0.28 z M28.4 16.36 c0 0.04 -0.04 0 0 0 l0 0 z M28.4 16.6 c0 0.04 -0.04 0 0 0 l0 0 z M28.68 16.68 c0.04 0.16 0.04 -0.2 0 0 l0 0 z M28.32 16.76 c0.04 0.04 0 0 0 0 l0 0 z M28 16.96 c0.08 -0.08 0.04 -0.24 -0.08 -0.2 c-0.04 0.12 0 0.2 0.08 0.2 z M28.24 17.04 c0.12 0.08 0.12 -0.2 0.04 -0.2 c0 0.08 -0.08 0.12 -0.04 0.2 z M27.72 17.72 c0.16 -0.2 0.16 -0.52 0.12 -0.76 c-0.04 0.2 -0.24 0.72 -0.12 0.76 z M28.04 17.48 c0.16 0 0.32 -0.36 0.16 -0.4 c0 0.2 -0.12 0.28 -0.16 0.4 z M27.959999999999997 17.52 c0 -0.08 0.16 -0.24 0.04 -0.32 c0 0.08 -0.16 0.28 -0.04 0.32 z M28.4 17.88 c-0.08 -0.28 0.28 -0.48 0.04 -0.6 c-0.04 0.16 -0.2 0.44 -0.04 0.6 z M27.839999999999996 17.68 c0.04 0.04 0 -0.04 0 0 l0 0 z M28.04 17.68 c0.04 0.04 0 -0.04 0 0 l0 0 z M27.959999999999997 17.92 l0.08 0 l0 -0.12 l-0.08 0 l0 0.12 z M27.479999999999997 18.44 c0.04 -0.2 0.16 -0.36 0.28 -0.48 c-0.2 -0.16 -0.48 0.4 -0.28 0.48 z M31.599999999999998 17.96 l0 0.08 c0.12 0.08 0.12 -0.16 0.04 -0.12 c0 0.04 0 0.04 -0.04 0.04 z M27.68 18.52 c0 -0.08 0.08 -0.2 -0.08 -0.24 c0.04 0.08 -0.04 0.28 0.08 0.24 z M28.08 18.6 c0.04 0 0 -0.04 0 0 l0 0 z M27.24 18.92 c0.16 0.04 0.12 -0.16 0.24 -0.04 c0.04 -0.16 -0.08 -0.2 -0.2 -0.2 c0.04 0.12 -0.08 0.12 -0.04 0.24 z M27.68 19.2 c-0.08 -0.24 0.36 -0.36 0.08 -0.52 c0 0.2 -0.32 0.44 -0.08 0.52 z M28.4 18.76 c0 0.04 -0.04 0 0 0 l0 0 z M27.52 18.88 c0.04 0.04 -0.04 -0.04 0 0 l0 0 z M27.839999999999996 19.12 l0.12 0 l0 -0.12 l-0.12 0 l0 0.12 z M31.32 19.32 c0.08 -0.04 0.28 -0.32 0.08 -0.32 c0.04 0.16 -0.16 0.12 -0.08 0.32 z M27.36 19.16 l0.16 0 c0 -0.08 -0.04 -0.12 -0.16 -0.08 l0 0.08 z M31.68 19.16 l0.12 0 l0 -0.08 l-0.12 0 l0 0.08 z M28.159999999999997 19.24 c0.12 0.08 0.12 -0.2 0 -0.12 l0 0.12 z M27.119999999999997 19.48 l0.2 0 c-0.12 -0.12 0.12 -0.24 -0.08 -0.28 c-0.04 0.12 -0.08 0.2 -0.12 0.28 z M27.72 19.88 c0.12 0 0.16 -0.16 0.24 -0.24 c-0.24 0 0.04 -0.28 -0.16 -0.24 c-0.04 0.16 -0.04 0.36 -0.08 0.48 z M27.56 19.48 c0.04 0.04 0 0 0 0 l0 0 z M28 19.6 c0.2 0.04 0 -0.16 0 0 l0 0 z M27 20.2 c0.08 -0.16 -0.04 0.2 0.12 0.12 c0.04 -0.28 0.04 -0.36 0 -0.64 c-0.04 0 -0.12 0 -0.12 0.04 c0.16 0.12 -0.2 0.36 0 0.48 z M27.919999999999998 19.84 c0.04 0.2 0.04 -0.2 0 0 l0 0 z M27.279999999999998 20.16 c0.04 0.04 -0.04 0 0 0 l0 0 z M27.2 20.56 c0.2 0 0.12 -0.24 0.04 -0.36 c-0.08 0.08 -0.04 0.24 -0.04 0.36 z M27.959999999999997 20.4 c0 -0.12 -0.08 -0.16 -0.16 -0.2 c0 0.12 0.08 0.16 0.16 0.2 z M26.759999999999998 20.76 c0.16 -0.04 0.12 -0.16 0.28 -0.08 c0 -0.12 0 -0.2 -0.04 -0.28 l-0.16 0 c0.12 0.2 -0.08 0.16 -0.08 0.36 z M30.68 20.64 c0.04 0.04 0 0 0 0 l0 0 z M26.839999999999996 21.04 c0 -0.08 0.08 -0.12 0 -0.16 c0 0.08 -0.08 0.12 0 0.16 z M27.279999999999998 21.04 l0.08 0 l0 -0.12 l-0.08 0 l0 0.12 z M26.639999999999997 21.28 c-0.2 -0.04 0 0.12 0 0 c0.12 0 0.04 0.16 0.2 0.12 c0.08 -0.08 0 -0.36 -0.12 -0.36 c-0.04 0.04 -0.08 0.12 -0.08 0.24 z M27.56 21.24 c-0.12 0.16 0.16 -0.12 0 0 l0 0 z M27.36 21.4 c0 -0.08 -0.04 -0.12 -0.08 -0.12 c0 0.08 0.04 0.12 0.08 0.12 z M26.479999999999997 21.52 c-0.04 0.08 0 0.16 0.04 0.2 c0.12 0 0.24 -0.24 0.08 -0.24 c0 0.04 -0.08 0.04 -0.12 0.04 z M27.04 22.04 c0.12 -0.04 0.2 -0.36 0.16 -0.44 c-0.12 0.08 -0.12 0.28 -0.16 0.44 z M30.32 21.84 c0.16 0 0.2 -0.16 0.08 -0.24 c0.04 0.16 -0.12 0.12 -0.08 0.24 z M26.4 21.96 l0.16 0 c0 -0.16 0 -0.24 -0.16 -0.2 l0 0.2 z M26.72 21.96 l0 0.08 c0.12 0.08 0.12 -0.16 0.04 -0.16 c0 0.04 0 0.08 -0.04 0.08 z M30.799999999999997 21.88 c-0.08 0.28 0.2 0.04 0 0 l0 0 z M26.56 22.04 c0.04 0.04 -0.04 0 0 0 l0 0 z M29.88 22.12 c0 0 0 -0.04 0.04 -0.04 c0 -0.04 0 -0.12 -0.08 -0.08 c0 0.04 -0.04 0.12 0.04 0.12 z M30.2 22.04 c0.08 0.2 0.08 -0.2 0 0 l0 0 z M26.24 22.76 c0.16 -0.12 0.28 -0.32 0.28 -0.64 c-0.08 0 -0.08 -0.04 -0.16 -0.04 c-0.12 0.16 -0.08 0.48 -0.12 0.68 z M27.279999999999998 22.2 c0.04 0 -0.04 -0.04 0 0 l0 0 z M26.839999999999996 22.44 c0.16 0.04 0.08 0.04 0.04 0.16 c0.16 -0.04 0.2 -0.16 0.24 -0.32 c-0.08 -0.08 -0.24 0.04 -0.28 0.16 z M26.639999999999997 22.32 c0.16 0.16 0.08 -0.16 0 0 l0 0 z M26.599999999999998 22.6 c-0.04 0.32 0.04 -0.16 0 0 l0 0 z M26.36 22.8 l0.12 0 l0 -0.08 l-0.12 0 l0 0.08 z M30.479999999999997 22.76 c-0.12 0.16 0.16 -0.12 0 0 l0 0 z M29.759999999999998 22.8 c0.2 0.04 0.04 -0.12 0 0 l0 0 z M29.959999999999997 22.92 c0.12 0 0.16 -0.08 0.2 -0.16 c-0.12 0 -0.2 0 -0.2 0.16 z M30.2 22.84 c0.04 0.04 0 0 0 0 l0 0 z M26.839999999999996 23.04 c0.04 -0.04 0.12 -0.16 0 -0.2 c0 0.04 -0.12 0.2 0 0.2 z M26.119999999999997 23.04 l0.16 0 c0 -0.08 -0.04 -0.12 -0.16 -0.08 l0 0.08 z M30.599999999999998 23 c0.04 0.04 -0.04 0 0 0 l0 0 z M26.279999999999998 23.24 c0.08 0.2 0.08 0.16 0 0.32 c0.2 0 0.28 -0.4 0.2 -0.56 c-0.08 0.08 -0.04 0.28 -0.2 0.24 z M29.599999999999998 23.2 c0 0.04 -0.04 -0.04 0 0 l0 0 z M26 23.76 c0 -0.12 0.28 -0.48 0.04 -0.56 c0.04 0.2 -0.32 0.48 -0.04 0.56 z M30 23.24 c0.16 0.16 0.08 -0.16 0 0 l0 0 z M29.68 23.48 l0.16 0 c-0.04 -0.08 0.04 -0.24 -0.12 -0.2 c0 0.08 -0.08 0.12 -0.04 0.2 z M29.519999999999996 23.56 c0 -0.08 0.16 -0.2 -0.04 -0.16 c0 0.04 0 0.16 0.04 0.16 z M29.639999999999997 23.68 c0.16 0.16 0.08 -0.16 0 0 l0 0 z M26.479999999999997 24.36 c0 -0.04 0.04 -0.08 0.08 -0.08 c-0.04 -0.16 0 -0.24 0.04 -0.36 c-0.16 0 -0.28 0.4 -0.12 0.44 z M25.799999999999997 24.2 c0.12 -0.04 0.32 0 0.28 -0.2 c-0.12 0.04 -0.32 0.04 -0.28 0.2 z M26.159999999999997 24.04 c-0.16 0.2 0.24 -0.24 0 0 l0 0 z M29.599999999999998 24.240000000000002 c0.08 0 0.08 0.08 0.16 0.04 c0.04 -0.16 -0.16 -0.16 -0.16 -0.04 z M25.599999999999998 24.52 c0.12 0.16 0.12 0.44 0.24 0.56 c-0.08 -0.32 0.16 -0.56 0 -0.72 c-0.04 0.2 -0.16 0.04 -0.24 0.16 z M26.119999999999997 24.4 c0.04 0.04 0 -0.04 0 0 l0 0 z M29.119999999999997 24.4 c0 0.04 -0.04 -0.04 0 0 l0 0 z M29.24 24.48 c0.08 0.2 0.08 -0.2 0 0 l0 0 z M25.639999999999997 24.92 c0.08 -0.08 0.08 -0.16 -0.04 -0.2 c0 0.08 0 0.2 0.04 0.2 z M26 24.880000000000003 c-0.04 0.28 0 -0.2 0 0 l0 0 z M28.799999999999997 25 c0.04 0.04 0 0 0 0 l0 0 z M25.52 25.16 c0 0.2 -0.08 0.32 -0.16 0.44 c0 0.12 0.12 0.16 0.2 0.24 c0.08 -0.12 -0.08 -0.16 -0.04 -0.28 c0.04 0 0.08 0 0.12 0.04 c0.04 -0.12 -0.12 -0.32 0 -0.4 c0 0.08 0 0.16 0.04 0.16 c0.12 -0.12 0.12 -0.24 -0.04 -0.28 c0 0.04 -0.08 0.04 -0.12 0.08 z M28.959999999999997 25.2 c-0.12 0.16 0.16 -0.12 0 0 l0 0 z M25.839999999999996 25.6 c0.04 0.04 -0.04 -0.04 0 0 l0 0 z M25.759999999999998 25.8 c0.04 0.16 0.12 -0.2 0 0 l0 0 z M25.36 26.2 c0.12 0 0.32 -0.16 0.2 -0.28 c-0.04 0.16 -0.12 -0.04 -0.2 0 c-0.08 0.08 -0.08 0.24 0 0.28 z M26.04 26.28 c-0.08 -0.16 0.16 -0.32 -0.04 -0.32 c0 0.12 -0.08 0.28 0.04 0.32 z M28.4 26.439999999999998 c0 0 0.12 -0.16 0 -0.16 c-0.04 0 -0.12 0.16 0 0.16 z M24.959999999999997 27.4 c0.24 -0.04 0.16 -0.32 0.2 -0.48 c0.08 0.04 0.16 0 0.2 -0.04 c-0.04 -0.2 0.16 -0.44 -0.08 -0.48 c-0.16 0.24 -0.24 0.72 -0.32 1 z M25.799999999999997 26.64 c0.12 0.04 0.24 -0.28 0.04 -0.24 c0.04 0.16 -0.08 0.12 -0.04 0.24 z M25.52 26.68 c0.12 0.08 0.2 -0.2 0.08 -0.24 c-0.04 0.08 -0.04 0.2 -0.08 0.24 z M28.4 27 l0 0.08 l0.08 0 c0 -0.04 0 -0.04 0.04 -0.04 l0 -0.12 l-0.08 0 c0 0.04 0 0.08 -0.04 0.08 z M27.68 27.4 c0 0.04 -0.04 0 0 0 l0 0 z M25.08 27.6 c0.12 0.04 0.12 -0.08 0.12 -0.2 c-0.12 0 -0.12 0.12 -0.12 0.2 z M24.84 28.04 c0.16 0.08 0.24 -0.16 0.12 -0.24 c0 0.04 0 0.12 -0.08 0.08 c-0.04 -0.16 0.28 -0.28 0.04 -0.36 c0 0.2 -0.2 0.32 -0.08 0.52 z M25.279999999999998 27.560000000000002 c0 0.04 -0.04 0 0 0 l0 0 z M27.68 27.560000000000002 c0 0.04 -0.04 0 0 0 l0 0 z M25.119999999999997 28 c0.12 0 0.16 -0.12 0.24 -0.2 c-0.12 0.04 -0.24 0.04 -0.24 0.2 z M25.56 28.04 c0.04 0.04 -0.04 0 0 0 l0 0 z M28.24 28.04 c0.04 0.04 -0.04 0 0 0 l0 0 z M25.04 28.119999999999997 c0.2 0.08 0 -0.12 0 0 l0 0 z M24.639999999999997 28.759999999999998 c0.16 -0.04 0.2 -0.24 0.24 -0.44 c-0.08 0 -0.08 -0.12 -0.2 -0.08 c0 0.2 0 0.4 -0.04 0.52 z M27.799999999999997 29 c0 -0.12 0.28 -0.36 0.04 -0.4 c0.08 0.2 -0.2 0.28 -0.04 0.4 z M24.479999999999997 29.08 c0.12 0 0.08 0.16 0.2 0.12 c0.08 -0.08 0.08 -0.24 -0.04 -0.24 c0 0.12 -0.16 0.04 -0.16 0.12 z M25.159999999999997 29.16 c0.08 0 0.12 -0.04 0.16 -0.12 c-0.08 0 -0.12 0.04 -0.16 0.12 z M26.759999999999998 29.2 l0 0.08 l0.08 0 c0.04 -0.04 0.04 -0.12 -0.04 -0.12 c0 0 0 0.04 -0.04 0.04 z M24.439999999999998 29.439999999999998 c0.04 0.04 0 -0.04 0 0 l0 0 z M27.52 29.48 c0.04 0.2 0.04 -0.2 0 0 l0 0 z M26.319999999999997 31.119999999999997 c0.08 0.04 0.2 -0.12 0.08 -0.16 c0 0.08 -0.12 0.04 -0.08 0.16 z M25.88 31.36 c0.08 0.2 0.08 -0.2 0 0 l0 0 z M26.04 32.2 c0.04 -0.04 0.08 -0.2 -0.04 -0.24 c-0.08 0.08 -0.04 0.2 0.04 0.24 z M41.48 33.24 c0.04 0 0 -0.04 0 0 l0 0 z M40.44 34.28 c0.28 -0.08 0.4 -0.32 0.56 -0.52 c-0.24 0.12 -0.44 0.28 -0.56 0.52 z M27.439999999999998 34.12 c0.12 0.16 0.08 -0.16 0 0 l0 0 z M27.839999999999996 34.36 c0.16 0.08 0.16 -0.2 0 -0.12 l0 0.12 z M40.08 34.44 l0 0.08 l0.12 0 c0.04 -0.08 0.04 -0.12 -0.04 -0.16 c-0.04 0.04 -0.04 0.08 -0.08 0.08 z M39.839999999999996 34.76 c0.04 -0.08 0.2 -0.04 0.16 -0.2 c-0.12 0 -0.28 0.16 -0.16 0.2 z M39.28 35.2 c0.08 0.04 0.64 -0.32 0.4 -0.44 c-0.08 0.2 -0.44 0.16 -0.4 0.44 z M26.72 35.32 c0 -0.08 0.28 -0.2 0.08 -0.28 c0 0.08 -0.24 0.2 -0.08 0.28 z M37.12 36.84 c0.68 -0.52 1.68 -1.12 2 -1.64 c-0.64 0.56 -1.44 0.96 -2 1.64 z M26.24 35.68 c0.08 0.12 0.48 -0.28 0.24 -0.36 c0 0.24 -0.24 0.16 -0.24 0.36 z M25.68 35.76 c0.04 -0.08 0.28 -0.16 0.08 -0.24 c-0.04 0.08 -0.2 0.2 -0.08 0.24 z M26.04 35.96 c0.16 0 0.16 -0.12 0.2 -0.24 l-0.16 0 c0 0.12 -0.08 0.12 -0.04 0.24 z M25.439999999999998 35.88 l0 0.08 c0.12 0.08 0.16 -0.16 0.08 -0.16 c-0.04 0.04 -0.04 0.08 -0.08 0.08 z M23.36 36.76 c-0.04 -0.32 0.24 -0.56 0.12 -0.84 c-0.08 0.2 -0.48 0.68 -0.12 0.84 z M25.839999999999996 36 c0.16 0.16 0.08 -0.16 0 0 l0 0 z M25.319999999999997 36.12 c0.04 0 -0.04 -0.04 0 0 l0 0 z M24.919999999999998 36.48 c0.16 -0.04 0.28 -0.16 0.28 -0.32 c-0.16 0.04 -0.2 0.2 -0.28 0.32 z M25.52 36.48 c0.08 -0.04 0.2 -0.12 0.24 -0.28 c-0.16 0.04 -0.28 0.12 -0.24 0.28 z M38.4 36.44 c0.08 -0.04 0.12 -0.12 0.12 -0.24 c-0.24 -0.08 -0.32 0.24 -0.12 0.24 z M38.08 36.64 c0.12 0.08 0.12 -0.24 0 -0.16 l0 0.16 z M25.159999999999997 36.88 c0.12 -0.08 0.28 -0.12 0.24 -0.36 c-0.16 0.04 -0.32 0.28 -0.24 0.36 z M24.56 36.84 c0.12 0 0.2 -0.04 0.16 -0.16 c-0.08 0.04 -0.2 0 -0.16 0.16 z M37.68 36.96 c0.16 0 0.48 -0.16 0.24 -0.24 c0 0.16 -0.28 0.04 -0.24 0.24 z M24.119999999999997 36.84 c0.04 0 -0.04 -0.04 0 0 l0 0 z M36.36 37.48 c0.24 -0.2 0.52 -0.36 0.72 -0.64 c-0.24 0.04 -0.6 0.32 -0.72 0.64 z M23.119999999999997 37.24 c-0.08 0 -0.12 0 -0.16 -0.04 c0 0.16 -0.08 0.28 0.04 0.36 c0.12 -0.24 0.28 -0.52 0.04 -0.72 c-0.12 0.12 0.12 0.2 0.08 0.4 z M24.08 37.56 c0.08 -0.24 0.32 -0.32 0.4 -0.6 c-0.2 0.08 -0.48 0.36 -0.4 0.6 z M24.84 37.2 c0.12 0.08 0.12 -0.2 0 -0.12 l0 0.12 z M24.68 37.32 c0.04 0 0 -0.04 0 0 l0 0 z M36.16 37.64 c0.04 -0.08 0.08 -0.12 0.08 -0.2 c-0.12 0 -0.28 0.16 -0.08 0.2 z M22.919999999999998 38.04 c-0.08 -0.2 0.12 -0.36 0 -0.44 c-0.04 0.12 -0.32 0.4 0 0.44 z M35.839999999999996 37.84 l0.08 0 l0 -0.12 l-0.08 0 l0 0.12 z M35.64 37.92 c-0.12 0.16 0.16 -0.12 0 0 l0 0 z M22.68 38.36 c0.12 0.08 0.12 -0.2 0 -0.16 l0 0.16 z M22.56 38.76 l0.12 0 l0 -0.12 l-0.12 0 l0 0.12 z M28.88 12.920000000000002 c-0.2 0 0 -0.2 0 0 l0 0 z M28.04 15 l0 0 c0.04 0 0 -0.04 0 0 z M31.68 16.52 l0 0 c-0.04 0.28 0.04 -0.2 0 0 z M31.56 16.76 c0.04 0.04 0.08 0.08 0.08 0.16 c-0.08 0 -0.08 -0.08 -0.08 -0.16 z M31.4 17.32 c0.16 -0.08 -0.12 0.16 0 0 l0 0 z M26.04 21.64 l0 0 c0.04 0.04 -0.04 0 0 0 z M25.759999999999998 22.72 c0.08 -0.04 0.04 0.2 -0.08 0.12 l0 -0.08 c0.04 0 0.04 0 0.08 -0.04 z M25.639999999999997 23.04 c0.08 0 0.08 0.28 -0.04 0.2 c0 -0.08 0.04 -0.08 0.04 -0.2 z M23.999999999999996 29.560000000000002 l0 0 c0.04 0.04 0 0 0 0 z M27.279999999999998 30.04 c0.12 -0.16 0.08 0.16 0 0 l0 0 z M39.599999999999994 35.480000000000004 c0.2 -0.04 0.08 0.16 0.08 0.2 c-0.08 -0.04 -0.04 -0.12 -0.08 -0.2 z M39.56 35.68 c-0.04 0.12 -0.16 0.16 -0.28 0.24 c0.04 -0.16 0.12 -0.24 0.28 -0.24 z M38.72 36.6 l0 0 c-0.2 0.16 0.16 -0.2 0 0 z M47.959999999999994 36.24 c0.04 0 0.04 -0.04 0.04 -0.04 c-0.04 -0.08 -0.04 0 -0.04 0.04 c-0.16 0.12 -0.48 0.2 -0.44 0.36 c-0.16 0.2 -0.4 0.2 -0.64 0.36 c-1.64 1.04 -3.72 4.48 -6.04 3.56 c-0.08 -0.28 -0.24 -0.48 -0.32 -0.72 c0 -0.2 -0.16 0.08 -0.16 -0.08 c-0.12 -0.2 -0.2 -0.4 -0.32 -0.6 c0.56 -2.8 2.08 -4.64 3.56 -6.6 c0.56 -0.44 1.24 -0.96 2.16 -0.96 c0.88 0.2 1.92 0.48 2.08 1.56 c0.08 0.6 -0.16 1 -0.4 1.4 c0.32 0 0.68 -0.32 1.2 -0.24 c0.72 0.28 0.84 1.76 0.32 2.28 c0.36 0.6 -0.36 1.48 -0.08 2.16 c4 -0.64 6.24 -3.48 8.68 -5.84 c-0.28 2.12 -2.44 3.2 -3.84 4.64 c-0.92 0.52 -1.6 1 -2.6 1.44 c0.08 0.12 0.24 -0.12 0.4 -0.08 c-0.04 0.12 -0.2 0.08 -0.2 0.2 c1.64 -0.56 2.68 -1.92 4.08 -2.56 c-0.04 -0.12 -0.16 0.04 -0.24 0 c0.08 -0.12 0.2 -0.36 0.28 -0.08 c0.12 -0.28 0.56 -0.76 1.12 -0.88 c-1.72 2.08 -3.92 3.48 -6.56 4.72 c-0.36 0.04 -0.64 -0.08 -1 -0.08 c-0.6 -0.2 -0.8 -0.52 -1.08 -1.04 c-0.04 -0.8 -0.08 -2.04 0.04 -2.92 z M41.599999999999994 39 c2.04 -1 3.32 -2.68 4.96 -4.08 c-0.32 -0.28 -0.12 -1.24 -0.2 -1.6 c-2.64 0.84 -3.6 3.36 -4.76 5.68 z M57.08 33.8 c0.04 0.16 0.12 -0.2 0 0 l0 0 z M56.839999999999996 34.08 c0.08 0.08 0.16 -0.04 0.2 -0.16 c-0.12 0.04 -0.24 0.04 -0.2 0.16 z M52 37.88 c-0.04 -0.08 -0.12 -0.08 -0.12 0 c-0.12 -0.04 -0.16 0.04 -0.2 0.12 c0.12 0 0.16 -0.08 0.2 -0.12 l0.12 0 c-0.08 0.16 -0.28 0.2 -0.44 0.28 c0 -0.08 0.2 -0.16 0 -0.16 c-0.08 0.16 -0.16 0.4 -0.4 0.2 c-0.04 0.12 -0.16 0.32 0 0.32 c2.16 -1.12 4.24 -2.6 5.64 -4.4 c-1.56 1.32 -3 2.72 -4.8 3.76 z M47.279999999999994 35.16 c-0.16 0.24 0.28 0.08 0 0 l0 0 z M46.959999999999994 35.480000000000004 c0.04 0.08 0.32 -0.08 0.16 -0.16 c0 0.12 -0.2 0 -0.16 0.16 z M46.72 35.72 c-0.12 -0.04 -0.2 0.16 -0.12 0.16 c0 -0.08 0.12 -0.04 0.12 -0.16 c0.04 0 0.04 0.04 0.08 0.04 c0.04 -0.04 0.04 -0.08 0.04 -0.16 c-0.08 0 -0.12 0.04 -0.12 0.12 z M46.959999999999994 35.84 c0 0.04 -0.04 0 0 0 l0 0 z M45.8 36.48 c-0.12 0.16 0.16 -0.12 0 0 l0 0 z M45.63999999999999 36.6 c0.04 0.04 0 0 0 0 l0 0 z M47.279999999999994 36.6 c0.24 0.08 0.04 -0.12 0 0 l0 0 z M47.08 36.76 c0.2 0.04 0 -0.16 0 0 l0 0 z M51.36 38.2 c0.04 0.04 -0.04 0 0 0 l0 0 z M41.31999999999999 38.28 c0.2 0.08 0 -0.12 0 0 l0 0 z M41.279999999999994 38.52 c-0.08 0.12 -0.28 0.36 -0.2 0.44 c0.08 -0.12 0.2 -0.2 0.2 -0.44 c0.08 0 0 -0.04 0 0 z M50.8 39.16 c0.08 -0.04 0.24 -0.04 0.28 -0.16 c-0.16 0 -0.32 0 -0.28 0.16 z M41.04 39.12 c-0.12 0.16 0.16 -0.12 0 0 l0 0 z M50.879999999999995 39.32 c0.16 -0.08 0.36 -0.08 0.4 -0.24 c-0.16 0.04 -0.32 0.08 -0.4 0.24 z M41.04 39.32 c0.08 -0.16 -0.2 -0.16 -0.2 -0.08 c0.08 0 0.12 0.08 0.2 0.08 z M56.879999999999995 34.92 c0.12 0.08 -0.04 0.24 -0.16 0.2 c0.04 -0.08 0.16 -0.08 0.16 -0.2 z M56.8 35.28 c0.04 0.16 -0.28 0.24 -0.24 0.04 c0.08 0.04 0.08 -0.08 0.24 -0.04 z M56.31999999999999 35.36 c0.04 -0.16 0.04 0.2 0 0 l0 0 z M51.839999999999996 38.72 c0 0.12 -0.16 0.08 -0.16 0.16 c-0.12 -0.04 0.08 -0.16 0.16 -0.16 z"></path></g>
			</g>
		</svg>
	